<svg width="179" height="42" viewBox="0 0 179 42" fill="none" xmlns="http://www.w3.org/2000/svg">
<path fill-rule="evenodd" clip-rule="evenodd" d="M47.1413 19.8985L44.2301 12.7841L41.3205 19.8985H47.1413ZM42.0691 6.98584H46.5147L55.904 29.0823H50.8647L48.8614 24.1625H39.5976L37.5935 29.0823H32.6796L42.0691 6.98584Z" fill="black"/>
<path fill-rule="evenodd" clip-rule="evenodd" d="M57.2031 20.776V20.7145C57.2031 15.9204 60.8629 11.9695 65.9959 11.9695C69.1598 11.9695 71.1295 13.0363 72.6946 14.7898L69.7842 17.9255C68.7209 16.7957 67.6553 16.0754 65.9659 16.0754C63.5851 16.0754 61.8986 18.1756 61.8986 20.651V20.7145C61.8986 23.285 63.5543 25.3515 66.1543 25.3515C67.7501 25.3515 68.8457 24.6627 70.0026 23.5657L72.7918 26.3885C71.1631 28.1748 69.2847 29.4576 65.9352 29.4576C60.8943 29.4576 57.2031 25.5717 57.2031 20.776Z" fill="black"/>
<path fill-rule="evenodd" clip-rule="evenodd" d="M74.616 20.776V20.7145C74.616 15.9204 78.2764 11.9695 83.4095 11.9695C86.572 11.9695 88.5424 13.0363 90.1075 14.7898L87.1963 17.9255C86.1337 16.7957 85.0688 16.0754 83.378 16.0754C80.9979 16.0754 79.3114 18.1756 79.3114 20.651V20.7145C79.3114 23.285 80.9679 25.3515 83.5672 25.3515C85.1623 25.3515 86.2586 24.6627 87.4155 23.5657L90.2039 26.3885C88.5752 28.1748 86.6967 29.4576 83.3474 29.4576C78.3066 29.4576 74.616 25.5717 74.616 20.776Z" fill="black"/>
<path fill-rule="evenodd" clip-rule="evenodd" d="M105.486 20.776V20.7145C105.486 18.2371 103.702 16.0754 101.072 16.0754C98.3496 16.0754 96.7238 18.1756 96.7238 20.651V20.7145C96.7238 23.19 98.508 25.3515 101.135 25.3515C103.86 25.3515 105.486 23.2513 105.486 20.776ZM92.0291 20.776V20.7145C92.0291 15.8868 95.908 11.9695 101.135 11.9695C106.332 11.9695 110.181 15.826 110.181 20.651V20.7145C110.181 25.5409 106.302 29.4576 101.072 29.4576C95.8773 29.4576 92.0291 25.6044 92.0291 20.776Z" fill="black"/>
<path fill-rule="evenodd" clip-rule="evenodd" d="M113.856 29.0831H118.611V6.20264H113.856V29.0831Z" fill="black"/>
<path fill-rule="evenodd" clip-rule="evenodd" d="M133.017 23.16V22.3125C132.201 21.9373 131.139 21.6852 129.979 21.6852C127.945 21.6852 126.693 22.5019 126.693 24.0046V24.0683C126.693 25.3517 127.757 26.1041 129.291 26.1041C131.513 26.1041 133.017 24.8822 133.017 23.16ZM122.093 24.2548V24.1934C122.093 20.5261 124.876 18.834 128.853 18.834C130.545 18.834 131.763 19.1147 132.953 19.5236V19.2398C132.953 17.2668 131.732 16.1706 129.355 16.1706C127.538 16.1706 126.256 16.5144 124.721 17.0788L123.531 13.4423C125.379 12.6276 127.195 12.0946 130.043 12.0946C132.639 12.0946 134.521 12.7842 135.708 13.9762C136.96 15.2288 137.523 17.0788 137.523 19.335V29.0825H132.923V27.2626C131.763 28.5489 130.168 29.3962 127.853 29.3962C124.69 29.3962 122.093 27.5762 122.093 24.2548Z" fill="black"/>
<path fill-rule="evenodd" clip-rule="evenodd" d="M153.809 20.7145V20.651C153.809 17.862 151.964 16.0119 149.742 16.0119C147.519 16.0119 145.641 17.8313 145.641 20.651V20.7145C145.641 23.5044 147.519 25.3515 149.742 25.3515C151.964 25.3515 153.809 23.5044 153.809 20.7145ZM140.882 20.7145V20.651C140.882 15.0422 144.547 11.9695 148.521 11.9695C151.056 11.9695 152.622 13.1307 153.748 14.4776V6.2019H158.504V29.0825H153.748V26.6686C152.591 28.235 150.993 29.3962 148.521 29.3962C144.609 29.3962 140.882 26.3248 140.882 20.7145Z" fill="black"/>
<path fill-rule="evenodd" clip-rule="evenodd" d="M173.791 19.3675C173.511 17.2338 172.257 15.7924 170.254 15.7924C168.281 15.7924 166.999 17.2029 166.624 19.3675H173.791ZM161.961 20.7758V20.7144C161.961 15.9202 165.37 11.9694 170.254 11.9694C175.855 11.9694 178.425 16.3254 178.425 21.0895C178.425 21.4648 178.394 21.9037 178.361 22.343H166.685C167.154 24.5068 168.658 25.6352 170.786 25.6352C172.384 25.6352 173.542 25.132 174.856 23.9101L177.579 26.3247C176.013 28.2655 173.761 29.4575 170.723 29.4575C165.687 29.4575 161.961 25.9161 161.961 20.7758Z" fill="black"/>
<path fill-rule="evenodd" clip-rule="evenodd" d="M21.4195 12.5541H15.7528C15.5259 11.8044 15.2446 11.0941 14.9356 10.559L9.46073 1.06835C8.73282 -0.200031 7.53452 -0.200031 6.80077 1.06835L1.33098 10.559C0.596636 11.8266 0 14.0647 0 15.5295V26.4923C0 27.9572 1.19538 29.1561 2.66137 29.1561H8.32521C8.55234 29.9043 8.83277 30.6125 9.13962 31.1478L14.6144 40.6374C15.3467 41.9058 16.5436 41.9058 17.2751 40.6374L22.7477 31.1478C23.4785 29.8786 24.0781 27.6406 24.0781 26.1755V15.2186C24.0781 13.7537 22.8826 12.5541 21.4195 12.5541Z" fill="#40BFEF"/>
</svg>
